<svg width="926" height="697" viewBox="0 0 926 697" fill="none" xmlns="http://www.w3.org/2000/svg">
<g clip-path="url(#clip0_633_24)">
<rect x="60" width="829" height="507" rx="48" fill="#EDEDED"/>
<rect x="534" y="179" width="40" height="438" rx="20" fill="#EDEDED"/>
<rect x="473" y="572" width="161" height="54" rx="16" fill="#EDEDED"/>
<rect x="83" y="23" width="784" height="460" rx="36" fill="white"/>
<rect x="554" y="98" width="247" height="54" rx="16" fill="#EDEDED"/>
<rect x="554" y="183" width="247" height="54" rx="16" fill="#EDEDED"/>
<rect x="554" y="268" width="247" height="54" rx="16" fill="#EDEDED"/>
<line x1="153.004" y1="257.351" x2="253.35" y2="144.997" stroke="#EDEDED" stroke-width="25" stroke-linecap="round"/>
<line x1="254.678" y1="144" x2="349" y2="238.322" stroke="#EDEDED" stroke-width="25" stroke-linecap="round"/>
<line x1="349" y1="238.322" x2="468.322" y2="119" stroke="#EDEDED" stroke-width="25" stroke-linecap="round"/>
<rect y="262" width="456" height="811" rx="48" fill="#EDEDED"/>
<rect x="22" y="285" width="412" height="811" rx="36" fill="white"/>
<rect x="60" y="344" width="303" height="54" rx="16" fill="#EDEDED"/>
<rect x="60" y="424" width="234" height="54" rx="16" fill="#EDEDED"/>
<rect x="60" y="509" width="284" height="54" rx="16" fill="#EDEDED"/>
<circle cx="75" cy="616" r="11" fill="#FF7272"/>
<circle cx="120" cy="616" r="11" fill="#F8AA14"/>
<circle cx="165" cy="616" r="11" fill="#00DE09"/>
</g>
<defs>
<clipPath id="clip0_633_24">
<rect width="926" height="697" fill="white"/>
</clipPath>
</defs>
</svg>
