<svg width="735" height="167" viewBox="0 0 735 167" fill="none" xmlns="http://www.w3.org/2000/svg">
<path d="M245.645 114.96C241.165 114.96 237.133 114.416 233.549 113.328C229.965 112.176 226.541 110.192 223.277 107.376C222.445 106.672 221.805 105.872 221.357 104.976C220.909 104.08 220.685 103.184 220.685 102.288C220.685 100.816 221.197 99.536 222.221 98.448C223.309 97.296 224.653 96.72 226.253 96.72C227.469 96.72 228.557 97.104 229.517 97.872C231.949 99.856 234.349 101.36 236.717 102.384C239.149 103.408 242.125 103.92 245.645 103.92C248.013 103.92 250.189 103.568 252.173 102.864C254.157 102.096 255.757 101.104 256.973 99.888C258.189 98.608 258.797 97.168 258.797 95.568C258.797 93.648 258.221 92.016 257.069 90.672C255.917 89.328 254.157 88.208 251.789 87.312C249.421 86.352 246.413 85.616 242.765 85.104C239.309 84.592 236.269 83.824 233.645 82.8C231.021 81.712 228.813 80.368 227.021 78.768C225.293 77.104 223.981 75.184 223.085 73.008C222.189 70.768 221.741 68.272 221.741 65.52C221.741 61.36 222.797 57.808 224.909 54.864C227.085 51.92 229.997 49.68 233.645 48.144C237.293 46.608 241.325 45.84 245.741 45.84C249.901 45.84 253.741 46.48 257.261 47.76C260.845 48.976 263.757 50.544 265.997 52.464C267.853 53.936 268.781 55.632 268.781 57.552C268.781 58.96 268.237 60.24 267.149 61.392C266.061 62.544 264.781 63.12 263.309 63.12C262.349 63.12 261.485 62.832 260.717 62.256C259.693 61.36 258.317 60.528 256.589 59.76C254.861 58.928 253.037 58.256 251.117 57.744C249.197 57.168 247.405 56.88 245.741 56.88C242.989 56.88 240.653 57.232 238.733 57.936C236.877 58.64 235.469 59.6 234.509 60.816C233.549 62.032 233.069 63.44 233.069 65.04C233.069 66.96 233.613 68.56 234.701 69.84C235.853 71.056 237.485 72.048 239.597 72.816C241.709 73.52 244.237 74.16 247.181 74.736C251.021 75.44 254.381 76.272 257.261 77.232C260.205 78.192 262.637 79.44 264.557 80.976C266.477 82.448 267.917 84.336 268.877 86.64C269.837 88.88 270.317 91.632 270.317 94.896C270.317 99.056 269.165 102.64 266.861 105.648C264.557 108.656 261.517 110.96 257.741 112.56C254.029 114.16 249.997 114.96 245.645 114.96ZM318.478 62.64C320.142 62.64 321.518 63.216 322.606 64.368C323.694 65.456 324.238 66.832 324.238 68.496V109.296C324.238 115.184 323.118 119.856 320.878 123.312C318.702 126.832 315.758 129.36 312.046 130.896C308.334 132.432 304.174 133.2 299.566 133.2C297.518 133.2 295.342 133.04 293.038 132.72C290.734 132.4 288.846 131.92 287.374 131.28C285.454 130.448 284.11 129.392 283.342 128.112C282.638 126.896 282.51 125.584 282.958 124.176C283.534 122.32 284.462 121.04 285.742 120.336C287.022 119.696 288.366 119.632 289.774 120.144C290.798 120.464 292.142 120.944 293.806 121.584C295.47 122.288 297.39 122.64 299.566 122.64C302.51 122.64 304.942 122.224 306.862 121.392C308.846 120.624 310.318 119.28 311.278 117.36C312.302 115.504 312.814 112.944 312.814 109.68V103.248L314.83 105.552C313.742 107.664 312.366 109.424 310.702 110.832C309.102 112.176 307.182 113.2 304.942 113.904C302.702 114.608 300.142 114.96 297.262 114.96C293.87 114.96 290.894 114.192 288.334 112.656C285.838 111.056 283.886 108.88 282.478 106.128C281.07 103.312 280.366 100.112 280.366 96.528V68.496C280.366 66.832 280.91 65.456 281.998 64.368C283.086 63.216 284.462 62.64 286.126 62.64C287.79 62.64 289.166 63.216 290.254 64.368C291.342 65.456 291.886 66.832 291.886 68.496V93.072C291.886 97.232 292.782 100.176 294.574 101.904C296.43 103.568 298.99 104.4 302.254 104.4C304.494 104.4 306.382 103.984 307.918 103.152C309.454 102.256 310.638 100.976 311.47 99.312C312.302 97.584 312.718 95.504 312.718 93.072V68.496C312.718 66.832 313.262 65.456 314.35 64.368C315.438 63.216 316.814 62.64 318.478 62.64ZM363.686 61.68C368.806 61.68 372.582 62.928 375.014 65.424C377.446 67.856 379.046 71.024 379.814 74.928L378.182 74.064L378.95 72.528C379.718 71.056 380.902 69.488 382.502 67.824C384.102 66.096 386.022 64.656 388.262 63.504C390.566 62.288 393.126 61.68 395.942 61.68C400.55 61.68 404.038 62.672 406.406 64.656C408.838 66.64 410.502 69.296 411.398 72.624C412.294 75.888 412.742 79.536 412.742 83.568V108.144C412.742 109.808 412.198 111.216 411.11 112.368C410.022 113.456 408.646 114 406.982 114C405.318 114 403.942 113.456 402.854 112.368C401.766 111.216 401.222 109.808 401.222 108.144V83.568C401.222 81.456 400.966 79.568 400.454 77.904C399.942 76.176 399.014 74.8 397.67 73.776C396.326 72.752 394.406 72.24 391.91 72.24C389.478 72.24 387.398 72.752 385.67 73.776C383.942 74.8 382.63 76.176 381.734 77.904C380.902 79.568 380.486 81.456 380.486 83.568V108.144C380.486 109.808 379.942 111.216 378.854 112.368C377.766 113.456 376.39 114 374.726 114C373.062 114 371.686 113.456 370.598 112.368C369.51 111.216 368.966 109.808 368.966 108.144V83.568C368.966 81.456 368.71 79.568 368.198 77.904C367.686 76.176 366.758 74.8 365.414 73.776C364.07 72.752 362.15 72.24 359.654 72.24C357.222 72.24 355.142 72.752 353.414 73.776C351.686 74.8 350.374 76.176 349.478 77.904C348.646 79.568 348.23 81.456 348.23 83.568V108.144C348.23 109.808 347.686 111.216 346.598 112.368C345.51 113.456 344.134 114 342.47 114C340.806 114 339.43 113.456 338.342 112.368C337.254 111.216 336.71 109.808 336.71 108.144V68.496C336.71 66.832 337.254 65.456 338.342 64.368C339.43 63.216 340.806 62.64 342.47 62.64C344.134 62.64 345.51 63.216 346.598 64.368C347.686 65.456 348.23 66.832 348.23 68.496V72.624L346.79 72.336C347.366 71.248 348.166 70.096 349.19 68.88C350.214 67.6 351.462 66.416 352.934 65.328C354.406 64.24 356.038 63.376 357.83 62.736C359.622 62.032 361.574 61.68 363.686 61.68ZM451.802 61.68C456.282 61.68 460.282 62.832 463.802 65.136C467.386 67.376 470.202 70.48 472.25 74.448C474.362 78.416 475.418 83.024 475.418 88.272C475.418 93.52 474.362 98.16 472.25 102.192C470.202 106.16 467.418 109.296 463.898 111.6C460.442 113.84 456.538 114.96 452.186 114.96C449.626 114.96 447.226 114.544 444.986 113.712C442.746 112.88 440.762 111.824 439.034 110.544C437.37 109.264 436.058 107.984 435.098 106.704C434.202 105.36 433.754 104.24 433.754 103.344L436.73 102.096V127.344C436.73 129.008 436.186 130.384 435.098 131.472C434.01 132.624 432.634 133.2 430.97 133.2C429.306 133.2 427.93 132.656 426.842 131.568C425.754 130.48 425.21 129.072 425.21 127.344V68.496C425.21 66.832 425.754 65.456 426.842 64.368C427.93 63.216 429.306 62.64 430.97 62.64C432.634 62.64 434.01 63.216 435.098 64.368C436.186 65.456 436.73 66.832 436.73 68.496V73.2L435.098 72.336C435.098 71.504 435.546 70.512 436.442 69.36C437.338 68.144 438.554 66.96 440.09 65.808C441.626 64.592 443.386 63.6 445.37 62.832C447.418 62.064 449.562 61.68 451.802 61.68ZM450.362 72.24C447.546 72.24 445.082 72.944 442.97 74.352C440.858 75.76 439.194 77.68 437.978 80.112C436.826 82.48 436.25 85.2 436.25 88.272C436.25 91.28 436.826 94.032 437.978 96.528C439.194 98.96 440.858 100.88 442.97 102.288C445.082 103.696 447.546 104.4 450.362 104.4C453.178 104.4 455.61 103.696 457.658 102.288C459.77 100.88 461.402 98.96 462.554 96.528C463.77 94.032 464.378 91.28 464.378 88.272C464.378 85.2 463.77 82.48 462.554 80.112C461.402 77.68 459.77 75.76 457.658 74.352C455.61 72.944 453.178 72.24 450.362 72.24ZM504.61 114C502.818 114 501.346 113.456 500.194 112.368C499.042 111.216 498.466 109.808 498.466 108.144V52.464H510.946V108.144C510.946 109.808 510.338 111.216 509.122 112.368C507.97 113.456 506.466 114 504.61 114ZM483.394 57.84C481.73 57.84 480.322 57.328 479.17 56.304C478.082 55.28 477.538 53.936 477.538 52.272C477.538 50.608 478.082 49.296 479.17 48.336C480.322 47.312 481.73 46.8 483.394 46.8H526.018C527.682 46.8 529.058 47.312 530.146 48.336C531.298 49.36 531.874 50.704 531.874 52.368C531.874 54.032 531.298 55.376 530.146 56.4C529.058 57.36 527.682 57.84 526.018 57.84H483.394ZM541.033 114C539.369 114 537.993 113.456 536.905 112.368C535.817 111.216 535.273 109.808 535.273 108.144V68.496C535.273 66.832 535.817 65.456 536.905 64.368C537.993 63.216 539.369 62.64 541.033 62.64C542.697 62.64 544.073 63.216 545.161 64.368C546.249 65.456 546.793 66.832 546.793 68.496V77.52L546.121 71.088C546.825 69.552 547.721 68.208 548.809 67.056C549.961 65.84 551.241 64.848 552.649 64.08C554.057 63.248 555.561 62.64 557.161 62.256C558.761 61.872 560.361 61.68 561.961 61.68C563.881 61.68 565.481 62.224 566.761 63.312C568.105 64.4 568.777 65.68 568.777 67.152C568.777 69.264 568.233 70.8 567.145 71.76C566.057 72.656 564.873 73.104 563.593 73.104C562.377 73.104 561.257 72.88 560.233 72.432C559.273 71.984 558.153 71.76 556.873 71.76C555.721 71.76 554.537 72.048 553.321 72.624C552.169 73.136 551.081 73.968 550.057 75.12C549.097 76.272 548.297 77.712 547.657 79.44C547.081 81.104 546.793 83.088 546.793 85.392V108.144C546.793 109.808 546.249 111.216 545.161 112.368C544.073 113.456 542.697 114 541.033 114ZM617.821 61.68C619.485 61.68 620.861 62.224 621.949 63.312C623.037 64.4 623.581 65.808 623.581 67.536V108.144C623.581 109.808 623.037 111.216 621.949 112.368C620.861 113.456 619.485 114 617.821 114C616.157 114 614.781 113.456 613.693 112.368C612.605 111.216 612.061 109.808 612.061 108.144V103.44L614.173 104.304C614.173 105.136 613.725 106.16 612.829 107.376C611.933 108.528 610.717 109.68 609.181 110.832C607.645 111.984 605.821 112.976 603.709 113.808C601.661 114.576 599.421 114.96 596.989 114.96C592.573 114.96 588.573 113.84 584.989 111.6C581.405 109.296 578.557 106.16 576.445 102.192C574.397 98.16 573.373 93.552 573.373 88.368C573.373 83.12 574.397 78.512 576.445 74.544C578.557 70.512 581.373 67.376 584.893 65.136C588.413 62.832 592.317 61.68 596.605 61.68C599.357 61.68 601.885 62.096 604.189 62.928C606.493 63.76 608.477 64.816 610.141 66.096C611.869 67.376 613.181 68.688 614.077 70.032C615.037 71.312 615.517 72.4 615.517 73.296L612.061 74.544V67.536C612.061 65.872 612.605 64.496 613.693 63.408C614.781 62.256 616.157 61.68 617.821 61.68ZM598.429 104.4C601.245 104.4 603.709 103.696 605.821 102.288C607.933 100.88 609.565 98.96 610.717 96.528C611.933 94.096 612.541 91.376 612.541 88.368C612.541 85.296 611.933 82.544 610.717 80.112C609.565 77.68 607.933 75.76 605.821 74.352C603.709 72.944 601.245 72.24 598.429 72.24C595.677 72.24 593.245 72.944 591.133 74.352C589.021 75.76 587.357 77.68 586.141 80.112C584.989 82.544 584.413 85.296 584.413 88.368C584.413 91.376 584.989 94.096 586.141 96.528C587.357 98.96 589.021 100.88 591.133 102.288C593.245 103.696 595.677 104.4 598.429 104.4ZM658.902 61.68C662.55 61.68 665.718 62.064 668.406 62.832C671.158 63.6 673.27 64.688 674.742 66.096C676.278 67.44 677.046 69.072 677.046 70.992C677.046 72.272 676.662 73.488 675.894 74.64C675.126 75.728 674.006 76.272 672.534 76.272C671.51 76.272 670.646 76.144 669.942 75.888C669.302 75.568 668.726 75.184 668.214 74.736C667.702 74.288 667.094 73.872 666.39 73.488C665.75 73.104 664.758 72.816 663.414 72.624C662.134 72.368 661.174 72.24 660.534 72.24C657.27 72.24 654.486 72.944 652.182 74.352C649.942 75.76 648.214 77.68 646.998 80.112C645.782 82.48 645.174 85.232 645.174 88.368C645.174 91.44 645.782 94.192 646.998 96.624C648.278 98.992 650.006 100.88 652.182 102.288C654.422 103.696 656.982 104.4 659.862 104.4C661.462 104.4 662.838 104.304 663.99 104.112C665.142 103.92 666.102 103.632 666.87 103.248C667.766 102.736 668.566 102.192 669.27 101.616C669.974 101.04 671.03 100.752 672.438 100.752C674.102 100.752 675.382 101.296 676.278 102.384C677.174 103.408 677.622 104.688 677.622 106.224C677.622 107.824 676.726 109.296 674.934 110.64C673.142 111.92 670.774 112.976 667.83 113.808C664.95 114.576 661.814 114.96 658.422 114.96C653.366 114.96 648.982 113.808 645.27 111.504C641.558 109.136 638.678 105.936 636.63 101.904C634.646 97.872 633.654 93.36 633.654 88.368C633.654 83.12 634.71 78.512 636.822 74.544C638.998 70.512 641.974 67.376 645.75 65.136C649.59 62.832 653.974 61.68 658.902 61.68ZM692.649 114C690.985 114 689.609 113.456 688.521 112.368C687.433 111.216 686.889 109.808 686.889 108.144V48.816C686.889 47.152 687.433 45.776 688.521 44.688C689.609 43.536 690.985 42.96 692.649 42.96C694.313 42.96 695.689 43.536 696.777 44.688C697.865 45.776 698.409 47.152 698.409 48.816V108.144C698.409 109.808 697.865 111.216 696.777 112.368C695.689 113.456 694.313 114 692.649 114ZM723.177 62.64C724.649 62.64 725.929 63.248 727.017 64.464C728.105 65.68 728.649 66.864 728.649 68.016C728.649 69.552 727.881 70.992 726.345 72.336L697.449 98.928L696.969 85.68L718.953 64.464C720.169 63.248 721.577 62.64 723.177 62.64ZM724.617 113.904C722.953 113.904 721.545 113.264 720.393 111.984L702.633 93.168L711.369 85.104L728.649 103.92C729.865 105.2 730.473 106.64 730.473 108.24C730.473 109.904 729.801 111.28 728.457 112.368C727.177 113.392 725.897 113.904 724.617 113.904Z" fill="url(#paint0_linear_165_2)"/>
<rect x="93.5931" width="27.4248" height="119.949" rx="13.7124" fill="#FF8A58"/>
<rect x="46.6466" y="74.3207" width="27.3877" height="119.949" rx="13.6938" transform="rotate(-90 46.6466 74.3207)" fill="#FF8A58"/>
<rect x="46.9465" y="46.647" width="27.4248" height="119.949" rx="13.7124" fill="#FF7272"/>
<rect y="120.968" width="27.3877" height="119.949" rx="13.6938" transform="rotate(-90 0 120.968)" fill="#FF7272"/>
<defs>
<linearGradient id="paint0_linear_165_2" x1="216.595" y1="77.9999" x2="734.595" y2="77.9999" gradientUnits="userSpaceOnUse">
<stop stop-color="#FF7272"/>
<stop offset="1" stop-color="#FF8A58"/>
</linearGradient>
</defs>
</svg>
