<svg width="1920" height="583" viewBox="0 0 1920 583" fill="none" xmlns="http://www.w3.org/2000/svg">
<path d="M0 582.652V73.6366C101.219 79.4574 202.437 85.2782 329.333 64.7288C456.23 44.1794 608.804 -2.74012 757.333 1.10186C905.863 4.94383 1050.35 59.5473 1185.33 101.632C1320.32 143.718 1445.81 173.284 1566.67 166.532C1687.53 159.78 1803.76 116.708 1920 73.6366V582.652H0Z" fill="#FF8A58"/>
<path d="M0 582.652V328.144C120.051 368.196 240.102 408.247 376 391.771C511.898 375.295 663.643 302.292 801.333 303.966C939.024 305.641 1062.66 381.993 1186.67 380.319C1310.67 378.644 1435.05 298.943 1557.33 277.243C1679.62 255.543 1799.81 291.844 1920 328.144V582.652H0Z" fill="#FF7272"/>
</svg>
